<svg width="542" height="272" viewBox="0 0 542 272" fill="none" xmlns="http://www.w3.org/2000/svg">
<path d="M499.686 160.467H492.735L481.492 62.6559H488.443L499.686 160.467Z" fill="#A8A7FF"/>
<path d="M489.245 69.6263L483.093 76.5733L482.698 73.1392L488.851 66.1922L489.245 69.6263Z" fill="white"/>
<path d="M490.239 78.2768L484.086 85.2238L483.691 81.7897L489.844 74.8427L490.239 78.2768Z" fill="white"/>
<path d="M491.233 86.9273L485.082 93.8744L484.687 90.4402L490.839 83.4932L491.233 86.9273Z" fill="white"/>
<path d="M492.228 95.5778L486.075 102.525L485.68 99.0908L491.833 92.1438L492.228 95.5778Z" fill="white"/>
<path d="M493.222 104.228L487.07 111.174L486.675 107.741L492.828 100.794L493.222 104.228Z" fill="white"/>
<path d="M494.216 112.879L488.063 119.824L487.668 116.392L493.821 109.445L494.216 112.879Z" fill="white"/>
<path d="M495.212 121.529L489.059 128.475L488.664 125.042L494.817 118.095L495.212 121.529Z" fill="white"/>
<path d="M496.205 130.178L490.052 137.125L489.659 133.693L495.81 126.746L496.205 130.178Z" fill="white"/>
<path d="M497.2 138.829L491.047 145.776L490.652 142.342L496.805 135.396L497.2 138.829Z" fill="white"/>
<path d="M498.194 147.479L492.041 154.426L491.647 150.992L497.799 144.046L498.194 147.479Z" fill="white"/>
<path d="M534.441 160.467L522.955 261.184C522.316 266.745 517.608 270.942 512.01 270.942H474.512C468.914 270.942 464.207 266.745 463.568 261.184L452.014 160.467H534.441Z" fill="#F485A5"/>
<path d="M499.189 156.129L495.346 160.467H492.736L492.641 159.642L498.794 152.697L499.189 156.129Z" fill="white"/>
<path d="M536.401 144.209L522.955 261.184C522.316 266.745 517.608 270.942 512.011 270.942H474.511C468.914 270.942 464.206 266.745 463.567 261.184L450.122 144.209H536.401Z" stroke="#F485A5" stroke-width="0.678681" stroke-miterlimit="10"/>
<path d="M483.464 205.193L519.265 179.507C523.856 189.521 521.232 201.409 512.407 207.74C503.582 214.072 491.479 212.75 483.464 205.193Z" fill="#6360FF"/>
<path d="M506.274 207.668L503.088 194.699L514.34 201.862C513.313 203.161 512.093 204.337 510.689 205.345C509.3 206.341 507.815 207.113 506.274 207.668Z" fill="#A8A7FF"/>
<path d="M504.467 192.878L518.356 189.794C518.401 193.303 517.528 196.747 515.787 199.734L504.467 192.878Z" fill="#A8A7FF"/>
<path d="M493.535 207.639L500.944 195.404L503.82 208.36C500.421 209.071 496.861 208.805 493.535 207.639Z" fill="#A8A7FF"/>
<path d="M490.537 206.306C489.009 205.473 487.564 204.431 486.25 203.193L498.63 194.311L490.537 206.306Z" fill="#A8A7FF"/>
<path d="M503.97 190.48L516.478 181.506C517.239 183.163 517.766 184.884 518.062 186.617L503.97 190.48Z" fill="#A8A7FF"/>
<path d="M534.315 137.524H452.207C448.515 137.524 445.522 140.517 445.522 144.209H541C541 140.517 538.007 137.524 534.315 137.524Z" stroke="#573240" stroke-width="0.678681" stroke-miterlimit="10" stroke-linecap="round"/>
<path d="M534.508 137.524C530.532 120.577 515.414 108.596 498.007 108.596H488.515C471.108 108.596 455.99 120.577 452.015 137.524H534.508V137.524Z" stroke="#573240" stroke-width="0.678681" stroke-miterlimit="10" stroke-linecap="round"/>
<path d="M505.639 263.869H491.336C489.549 263.869 488.1 262.42 488.1 260.633V246.331C488.1 244.543 489.549 243.095 491.336 243.095H505.639C507.426 243.095 508.875 244.544 508.875 246.331V260.633C508.875 262.42 507.426 263.869 505.639 263.869Z" fill="#FFC3BD"/>
<path d="M517.104 238.123H505.849C504.062 238.123 502.613 236.675 502.613 234.887V223.632C502.613 221.845 504.062 220.396 505.849 220.396H517.104C518.891 220.396 520.34 221.845 520.34 223.632V234.887C520.34 236.675 518.891 238.123 517.104 238.123Z" fill="#FFC3BD"/>
<path d="M478.884 246.775H467.629C465.841 246.775 464.393 245.326 464.393 243.539V232.284C464.393 230.497 465.841 229.048 467.629 229.048H478.884C480.671 229.048 482.12 230.497 482.12 232.284V243.539C482.12 245.326 480.671 246.775 478.884 246.775Z" fill="#FFC3BD"/>
<path d="M486.473 194.434C487.533 194.434 488.392 193.575 488.392 192.515C488.392 191.456 487.533 190.597 486.473 190.597C485.414 190.597 484.555 191.456 484.555 192.515C484.555 193.575 485.414 194.434 486.473 194.434Z" stroke="white" stroke-width="0.678681" stroke-miterlimit="10"/>
<path d="M476.382 222.501C477.442 222.501 478.3 221.643 478.3 220.583C478.3 219.524 477.442 218.665 476.382 218.665C475.323 218.665 474.464 219.524 474.464 220.583C474.464 221.643 475.323 222.501 476.382 222.501Z" stroke="white" stroke-width="0.678681" stroke-miterlimit="10"/>
<path d="M471.749 178.644C473.249 178.644 474.464 177.428 474.464 175.929C474.464 174.43 473.249 173.214 471.749 173.214C470.25 173.214 469.035 174.43 469.035 175.929C469.035 177.428 470.25 178.644 471.749 178.644Z" stroke="white" stroke-width="0.678681" stroke-miterlimit="10"/>
<path d="M517.926 206.613C519.425 206.613 520.641 205.397 520.641 203.898C520.641 202.399 519.425 201.183 517.926 201.183C516.427 201.183 515.211 202.399 515.211 203.898C515.211 205.397 516.427 206.613 517.926 206.613Z" stroke="white" stroke-width="0.678681" stroke-miterlimit="10"/>
<path d="M495.884 223.705C496.746 223.705 497.445 223.006 497.445 222.144C497.445 221.282 496.746 220.583 495.884 220.583C495.022 220.583 494.323 221.282 494.323 222.144C494.323 223.006 495.022 223.705 495.884 223.705Z" stroke="white" stroke-width="0.678681" stroke-miterlimit="10"/>
<path d="M521.694 210.381C522.256 210.381 522.712 209.925 522.712 209.363C522.712 208.8 522.256 208.345 521.694 208.345C521.132 208.345 520.676 208.8 520.676 209.363C520.676 209.925 521.132 210.381 521.694 210.381Z" stroke="white" stroke-width="0.678681" stroke-miterlimit="10"/>
<path d="M511.201 176.891C512.138 176.891 512.897 176.131 512.897 175.194C512.897 174.257 512.138 173.498 511.201 173.498C510.264 173.498 509.504 174.257 509.504 175.194C509.504 176.131 510.264 176.891 511.201 176.891Z" stroke="white" stroke-width="0.678681" stroke-miterlimit="10"/>
<path d="M466.62 182.598C467.182 182.598 467.638 182.142 467.638 181.58C467.638 181.018 467.182 180.562 466.62 180.562C466.058 180.562 465.602 181.018 465.602 181.58C465.602 182.142 466.058 182.598 466.62 182.598Z" stroke="white" stroke-width="0.678681" stroke-miterlimit="10"/>
<path d="M467.638 214.314C468.2 214.314 468.656 213.858 468.656 213.296C468.656 212.733 468.2 212.278 467.638 212.278C467.076 212.278 466.62 212.733 466.62 213.296C466.62 213.858 467.076 214.314 467.638 214.314Z" stroke="white" stroke-width="0.678681" stroke-miterlimit="10"/>
<path d="M337.357 10.8837V34.7693H326.895V10.5486H275.733V34.7693H265.27V10.8837L276.152 0.000549316H326.474L337.357 10.8837Z" fill="#573240"/>
<path d="M333.15 34.7702V10.8833L322.266 1.52588e-05H271.945L261.063 10.8833V34.7702H219.204L192.057 270.943H374.582V34.7702H333.15ZM322.687 34.7702H271.525V10.5481H322.687V34.7702Z" fill="#6360FF"/>
<path d="M407.294 270.942H374.581V34.7693H380.146L407.294 270.942Z" fill="#573240"/>
<path d="M327.218 112.903C327.218 130.711 316.221 145.817 300.98 151.115V122.16C300.98 119.529 302.281 117.062 304.47 115.399C306.771 113.652 308.294 110.606 308.294 107.141C308.294 101.717 304.564 97.3243 299.963 97.3243C295.363 97.3243 291.633 101.717 291.633 107.141C291.633 110.606 293.156 113.652 295.457 115.399C297.646 117.062 298.947 119.529 298.947 122.16V151.757C295.765 152.66 292.421 153.14 288.969 153.14C285.542 153.14 282.22 152.667 279.059 151.776V126.005C279.059 123.375 280.359 120.907 282.549 119.244C283.827 118.274 284.867 116.899 285.537 115.275C286.072 113.98 286.372 112.525 286.372 110.987V98.3409C286.372 97.779 285.917 97.3243 285.356 97.3243H285.354C284.794 97.3243 284.338 97.779 284.338 98.3409V112.052C284.338 112.781 284.043 113.44 283.565 113.918C283.087 114.396 282.428 114.692 281.699 114.692C280.241 114.692 279.059 113.509 279.059 112.052V98.3409C279.059 98.06 278.945 97.8061 278.761 97.6215C278.577 97.4383 278.323 97.3243 278.042 97.3243C277.48 97.3243 277.025 97.779 277.025 98.3409V112.052C277.025 113.509 275.845 114.692 274.387 114.692H274.385C272.928 114.692 271.745 113.509 271.745 112.052V98.3409C271.745 98.06 271.631 97.8061 271.448 97.6215C271.263 97.4383 271.01 97.3243 270.729 97.3243C270.167 97.3243 269.712 97.779 269.712 98.3409V110.987C269.712 112.525 270.012 113.98 270.547 115.275C271.217 116.899 272.256 118.274 273.534 119.244C275.725 120.907 277.025 123.375 277.025 126.005V151.14C261.75 145.862 250.72 130.737 250.72 112.903C250.72 90.68 267.844 72.6637 288.969 72.6637C310.093 72.6637 327.218 90.68 327.218 112.903Z" fill="white"/>
<path d="M261.062 10.748H333.149" stroke="#573240" stroke-width="0.678681" stroke-miterlimit="10" stroke-linecap="round"/>
<path d="M424.605 229.913L409.867 200.312C406.422 193.394 399.36 189.02 391.631 189.02H295.843C288.114 189.02 281.052 193.394 277.607 200.312L262.869 229.913H424.605Z" fill="#6360FF" stroke="#573240" stroke-width="0.678681" stroke-miterlimit="10" stroke-linecap="round"/>
<path d="M396.491 239.21C388.858 247.358 378.993 250.519 371.782 243.763C364.57 237.007 367.081 226.957 374.715 218.809C382.348 210.661 394.742 207.202 400.755 212.835C406.769 218.469 404.125 231.062 396.491 239.21Z" fill="white"/>
<path d="M392.622 232.772C393.615 227.704 390.312 222.792 385.244 221.8C380.177 220.807 375.265 224.11 374.272 229.178C373.28 234.245 376.583 239.157 381.65 240.15C386.717 241.142 391.63 237.839 392.622 232.772Z" fill="#6360FF"/>
<path d="M481.82 223.044C484.532 231.674 482.836 239.894 475.197 242.294C467.559 244.694 461.466 238.921 458.754 230.291C456.043 221.66 458.535 211.537 464.905 209.536C471.274 207.534 479.109 214.413 481.82 223.044Z" fill="white"/>
<path d="M476.178 234.301C479.137 231.343 479.137 226.546 476.178 223.588C473.22 220.629 468.423 220.629 465.465 223.588C462.506 226.546 462.506 231.343 465.465 234.301C468.423 237.26 473.22 237.26 476.178 234.301Z" fill="#6360FF"/>
<path d="M334.916 240.461L301.925 222.273C307.448 215.986 317.199 214.346 325.332 218.829C333.464 223.313 337.284 232.435 334.916 240.461Z" fill="#A8A7FF"/>
<path d="M322.63 226.888C322.054 227.932 319.462 229.478 319.462 229.478C319.462 229.478 319.386 226.46 319.961 225.416C320.537 224.372 321.601 223.856 322.337 224.262C323.074 224.668 323.205 225.844 322.63 226.888Z" stroke="#573240" stroke-width="0.542945" stroke-miterlimit="10" stroke-linecap="round" stroke-linejoin="round"/>
<path d="M325.98 232.209C324.797 232.36 322.019 231.178 322.019 231.178C322.019 231.178 324.412 229.337 325.594 229.186C326.777 229.036 327.821 229.59 327.928 230.425C328.034 231.259 327.162 232.058 325.98 232.209Z" stroke="#573240" stroke-width="0.542945" stroke-miterlimit="10" stroke-linecap="round" stroke-linejoin="round"/>
<path d="M313.673 225.424C314.177 226.505 316.659 228.223 316.659 228.223C316.659 228.223 316.939 225.217 316.435 224.137C315.931 223.056 314.905 222.469 314.142 222.824C313.379 223.18 313.169 224.344 313.673 225.424Z" stroke="#573240" stroke-width="0.542945" stroke-miterlimit="10" stroke-linecap="round" stroke-linejoin="round"/>
<path d="M424.944 234.169L452.292 210.786C456.012 217.928 454.168 227.265 447.427 233.029C440.686 238.793 431.28 239.074 424.944 234.169Z" fill="#A8A7FF"/>
<path d="M441.176 227.812C440.442 226.934 439.945 224.067 439.945 224.067C439.945 224.067 442.654 225.042 443.388 225.921C444.121 226.799 444.221 227.935 443.61 228.457C442.999 228.98 441.909 228.691 441.176 227.812Z" stroke="#573240" stroke-width="0.542945" stroke-miterlimit="10" stroke-linecap="round" stroke-linejoin="round"/>
<path d="M435.31 228.985C435.576 227.87 437.568 225.78 437.568 225.78C437.568 225.78 438.395 228.568 438.128 229.684C437.862 230.799 437.015 231.548 436.237 231.355C435.458 231.162 435.043 230.101 435.31 228.985Z" stroke="#573240" stroke-width="0.542945" stroke-miterlimit="10" stroke-linecap="round" stroke-linejoin="round"/>
<path d="M445.511 220.263C444.38 220.342 442.011 221.98 442.011 221.98C442.011 221.98 444.59 223.271 445.721 223.192C446.852 223.113 447.722 222.393 447.665 221.584C447.607 220.775 446.643 220.183 445.511 220.263Z" stroke="#573240" stroke-width="0.542945" stroke-miterlimit="10" stroke-linecap="round" stroke-linejoin="round"/>
<path d="M377.254 234.68C377.254 234.68 366.76 229.869 367.239 215.631C367.718 201.392 380.44 196.845 382.818 201.298C384.381 204.224 382.548 207.861 377.453 209.743C371.683 211.875 368.251 213.654 369.085 220.441C369.838 226.574 372.678 231.21 377.254 234.68Z" fill="#F485A5"/>
<path d="M377.254 234.68C377.254 234.68 365.17 226.514 369.655 213.207C373.389 202.132 380.805 203.104 380.805 203.104" stroke="#573240" stroke-width="0.542945" stroke-miterlimit="10" stroke-linecap="round" stroke-linejoin="round"/>
<path d="M371.578 208.97C372.355 207.87 373.051 206.041 372.685 203.879" stroke="#573240" stroke-width="0.542945" stroke-miterlimit="10" stroke-linecap="round" stroke-linejoin="round"/>
<path d="M352.819 239.159C358.961 239.159 363.94 234.18 363.94 228.038C363.94 221.896 358.961 216.917 352.819 216.917C346.677 216.917 341.698 221.896 341.698 228.038C341.698 234.18 346.677 239.159 352.819 239.159Z" fill="#F485A5"/>
<path d="M354.484 223.771C354.377 224.595 353.089 226.256 353.089 226.256C353.089 226.256 352.272 224.319 352.38 223.496C352.488 222.673 353.047 222.067 353.628 222.143C354.209 222.219 354.592 222.948 354.484 223.771Z" stroke="#573240" stroke-width="0.542945" stroke-miterlimit="10" stroke-linecap="round" stroke-linejoin="round"/>
<path d="M351.206 232.453C351.314 231.629 352.602 229.968 352.602 229.968C352.602 229.968 353.418 231.905 353.311 232.729C353.203 233.552 352.644 234.157 352.063 234.081C351.482 234.005 351.098 233.276 351.206 232.453Z" stroke="#573240" stroke-width="0.542945" stroke-miterlimit="10" stroke-linecap="round" stroke-linejoin="round"/>
<path d="M348.505 226.473C349.328 226.581 350.989 227.869 350.989 227.869C350.989 227.869 349.052 228.685 348.229 228.577C347.405 228.469 346.8 227.911 346.876 227.33C346.952 226.749 347.681 226.365 348.505 226.473Z" stroke="#573240" stroke-width="0.542945" stroke-miterlimit="10" stroke-linecap="round" stroke-linejoin="round"/>
<path d="M357.186 229.751C356.363 229.643 354.701 228.355 354.701 228.355C354.701 228.355 356.638 227.539 357.461 227.647C358.285 227.755 358.89 228.313 358.814 228.894C358.738 229.476 358.009 229.859 357.186 229.751Z" stroke="#573240" stroke-width="0.542945" stroke-miterlimit="10" stroke-linecap="round" stroke-linejoin="round"/>
<path d="M278.123 237.223C281.771 237.223 284.729 234.266 284.729 230.617C284.729 226.969 281.771 224.011 278.123 224.011C274.474 224.011 271.517 226.969 271.517 230.617C271.517 234.266 274.474 237.223 278.123 237.223Z" fill="white"/>
<path d="M302.16 229.933C299.45 229.842 296.435 229.04 293.06 227.862C279.604 223.16 279.687 210.949 283.988 209.919C287.354 209.112 289.883 212.3 290.161 217.728C290.478 223.874 291.606 228.223 298.336 229.45C299.617 229.683 300.896 229.849 302.16 229.933Z" fill="#F485A5"/>
<path d="M304.06 229.961C300.237 230.172 295.831 229.395 291.519 226.368C284.432 221.394 284.723 212.259 284.723 212.259" stroke="#573240" stroke-width="0.542945" stroke-miterlimit="10" stroke-linecap="round" stroke-linejoin="round"/>
<path d="M303.132 229.795C303.63 229.876 295.567 229.141 293.364 222.119C291.725 216.893 295.784 215.682 297.412 217.326C299.228 219.159 297.815 224.186 300.119 227.52C300.787 228.487 300.696 229.395 303.132 229.795Z" fill="#F485A5"/>
<path d="M295.939 218.873C295.939 218.873 294.754 227.745 304.06 229.961" stroke="#573240" stroke-width="0.542945" stroke-miterlimit="10" stroke-linecap="round" stroke-linejoin="round"/>
<path d="M418.023 230.137C417.433 230.258 416.915 230.231 416.451 230.093C420.807 228.123 422.265 223.847 423.305 218.262C424.523 211.706 428.225 208.219 432.346 209.719C437.611 211.634 435.762 226.494 418.023 230.137Z" fill="#F485A5"/>
<path d="M401.825 232.104C406.672 232.576 415.237 231.872 420.895 228.407C430.193 222.713 430.207 212.497 430.207 212.497" stroke="#573240" stroke-width="0.542945" stroke-miterlimit="10" stroke-linecap="round" stroke-linejoin="round"/>
<path d="M403.014 231.952C402.376 232.024 412.669 231.575 415.877 223.101C418.264 216.794 413.174 215.085 411.009 217.007C408.595 219.15 410.098 225.383 406.976 229.336C406.071 230.483 406.135 231.599 403.014 231.952Z" fill="#F485A5"/>
<path d="M412.792 218.983C412.792 218.983 413.784 229.911 401.825 232.104" stroke="#573240" stroke-width="0.542945" stroke-miterlimit="10" stroke-linecap="round" stroke-linejoin="round"/>
<path d="M489.894 229.913L475.156 200.312C471.711 193.394 464.649 189.02 456.92 189.02H391.631C399.36 189.02 406.422 193.394 409.867 200.312L424.605 229.913H489.894Z" stroke="#573240" stroke-width="0.678681" stroke-miterlimit="10" stroke-linecap="round"/>
<path d="M424.605 229.913L409.867 200.312C406.422 193.394 399.36 189.02 391.631 189.02H295.843C288.114 189.02 281.052 193.394 277.607 200.312L262.869 229.913H424.605Z" stroke="#573240" stroke-width="0.678681" stroke-miterlimit="10" stroke-linecap="round"/>
<path d="M361.977 189.02H315.036V211.544H361.977V189.02Z" fill="#573240"/>
<path d="M424.605 230.049L409.866 259.651C406.422 266.569 399.359 270.942 391.631 270.942H295.842C288.114 270.942 281.051 266.569 277.607 259.651L262.868 230.049H424.605Z" fill="white"/>
<path d="M489.894 229.913L475.156 259.515C471.711 266.433 464.649 270.807 456.92 270.807H391.631C399.36 270.807 406.422 266.433 409.867 259.515L424.605 229.913H489.894Z" fill="white"/>
<path d="M489.894 229.913L475.156 259.514C471.711 266.433 464.649 270.806 456.92 270.806H295.843C288.114 270.806 281.052 266.433 277.607 259.514L262.868 229.913H489.894Z" fill="white"/>
<path d="M475.156 259.515C471.711 266.433 464.649 270.807 456.92 270.807H391.631C399.36 270.807 406.422 266.433 409.867 259.515L424.605 229.913" stroke="#573240" stroke-width="0.678681" stroke-miterlimit="10" stroke-linecap="round"/>
<path d="M424.605 229.913L409.867 259.515C406.422 266.433 399.36 270.807 391.631 270.807H291.771" stroke="#573240" stroke-width="0.678681" stroke-miterlimit="10" stroke-linecap="round"/>
<path d="M258.205 230.049H494.558" stroke="#573240" stroke-width="0.678681" stroke-miterlimit="10" stroke-linecap="round"/>
<path d="M342.656 203.601H338.616V199.562C338.616 195.368 342.015 191.969 346.209 191.969H350.248V196.009C350.248 200.202 346.849 203.601 342.656 203.601Z" stroke="#F485A5" stroke-width="0.542945" stroke-miterlimit="10"/>
<path d="M350.248 191.969L335.943 206.274" stroke="#F485A5" stroke-width="0.542945" stroke-miterlimit="10"/>
<path d="M345.915 192.105V196.303H350.112" stroke="#F485A5" stroke-width="0.542945" stroke-miterlimit="10"/>
<path d="M341.933 193.353V200.284H348.865" stroke="#F485A5" stroke-width="0.542945" stroke-miterlimit="10"/>
<path d="M335.199 203.894H336.259V202.833C336.259 198.64 332.859 195.241 328.666 195.241H327.606V196.301C327.606 200.494 331.005 203.894 335.199 203.894Z" stroke="#F485A5" stroke-width="0.542945" stroke-miterlimit="10"/>
<path d="M327.606 195.242L337.291 204.927" stroke="#F485A5" stroke-width="0.542945" stroke-miterlimit="10"/>
<path d="M333.113 196.677V200.748H329.042" stroke="#F485A5" stroke-width="0.542945" stroke-miterlimit="10"/>
<path d="M441.449 158.466L431.024 179.404C428.199 185.079 422.407 188.665 416.068 188.665H388.433C394.772 188.665 400.564 185.078 403.39 179.404L413.814 158.466H441.449Z" fill="#573240"/>
<path d="M413.815 158.466L412.706 160.692L403.391 179.404C400.565 185.079 394.773 188.665 388.434 188.665H348.836C342.497 188.665 336.705 185.078 333.88 179.404L324.564 160.692L323.455 158.466H413.815Z" fill="#A8A7FF"/>
<path d="M413.814 158.466L412.185 161.773H325.129L323.454 158.466H413.814Z" fill="#573240"/>
<path d="M445.355 158.466L432.825 133.301C429.896 127.419 423.892 123.701 417.322 123.701H388.627C395.198 123.701 401.202 127.419 404.13 133.301L416.66 158.466H445.355Z" fill="#FCD4D0"/>
<path d="M416.66 158.466L404.131 133.301C401.202 127.419 395.198 123.701 388.627 123.701H347.582C341.011 123.701 335.007 127.419 332.078 133.301L319.549 158.466H416.66Z" fill="white"/>
<path d="M201.384 132.92L192.146 213.295H66.3188L75.796 130.838H199.528C200.644 130.838 201.512 131.811 201.384 132.92Z" fill="#F6ACC1"/>
<path d="M182.39 130.838C180.897 130.838 179.641 131.958 179.471 133.441L178.516 141.747C177.771 148.228 172.284 153.12 165.76 153.12H65.7815C58.1093 153.12 52.1494 146.436 53.0256 138.814L53.7135 132.83C53.8439 131.695 54.8051 130.838 55.9477 130.838H182.39Z" fill="#FCD4D0"/>
<path d="M143.442 269.012C165.081 269.012 182.623 251.124 182.623 229.058C182.623 206.992 165.081 189.104 143.442 189.104C121.803 189.104 104.261 206.992 104.261 229.058C104.261 251.124 121.803 269.012 143.442 269.012Z" fill="#573240"/>
<path d="M136.52 189.104C114.88 189.104 97.3379 206.992 97.3379 229.058C97.3379 251.124 114.88 269.012 136.52 269.012C158.159 269.012 175.7 251.124 175.7 229.058C175.7 206.992 158.159 189.104 136.52 189.104ZM136.52 242.806C129.235 242.806 123.33 236.784 123.33 229.356C123.33 221.929 129.235 215.906 136.52 215.906C143.803 215.906 149.709 221.929 149.709 229.356C149.709 236.784 143.803 242.806 136.52 242.806Z" fill="#F485A5"/>
<path d="M142.305 196.161H138.96C138.587 196.161 138.284 195.859 138.284 195.486V195.439C138.284 195.066 138.587 194.764 138.96 194.764H142.305C142.678 194.764 142.98 195.066 142.98 195.439V195.486C142.98 195.859 142.678 196.161 142.305 196.161Z" fill="white"/>
<path d="M147.695 210.455H144.351C143.978 210.455 143.675 210.153 143.675 209.78V209.734C143.675 209.361 143.978 209.058 144.351 209.058H147.695C148.069 209.058 148.371 209.361 148.371 209.734V209.78C148.371 210.153 148.069 210.455 147.695 210.455Z" fill="#573240"/>
<path d="M119.788 201.931L116.96 203.717C116.645 203.916 116.227 203.822 116.028 203.507L116.004 203.468C115.804 203.152 115.899 202.735 116.214 202.536L119.042 200.75C119.358 200.551 119.775 200.645 119.974 200.961L119.999 201C120.198 201.315 120.104 201.732 119.788 201.931Z" fill="white"/>
<path d="M163.345 208.737L161.52 211.539C161.316 211.852 160.898 211.941 160.585 211.737L160.546 211.712C160.234 211.508 160.145 211.09 160.349 210.777L162.174 207.974C162.377 207.662 162.796 207.573 163.109 207.777L163.147 207.802C163.46 208.006 163.548 208.424 163.345 208.737Z" fill="white"/>
<path d="M135.38 208.337L132.552 210.123C132.237 210.322 131.82 210.228 131.621 209.912L131.596 209.873C131.397 209.558 131.491 209.14 131.806 208.941L134.634 207.155C134.95 206.956 135.367 207.051 135.566 207.366L135.591 207.405C135.79 207.72 135.696 208.138 135.38 208.337Z" fill="white"/>
<path d="M128.25 199.055L126.3 196.337C126.083 196.034 126.152 195.612 126.455 195.394L126.493 195.368C126.796 195.15 127.218 195.219 127.435 195.523L129.385 198.24C129.603 198.543 129.533 198.966 129.23 199.183L129.192 199.21C128.889 199.427 128.467 199.358 128.25 199.055Z" fill="#573240"/>
<path d="M155.323 209.475L153.374 206.757C153.156 206.454 153.226 206.032 153.529 205.815L153.567 205.788C153.87 205.57 154.292 205.64 154.509 205.943L156.459 208.661C156.676 208.964 156.607 209.386 156.304 209.603L156.266 209.63C155.963 209.848 155.541 209.778 155.323 209.475Z" fill="#A8A7FF"/>
<path d="M113.308 210.532L110.708 208.429C110.418 208.194 110.373 207.769 110.607 207.479L110.636 207.443C110.871 207.153 111.296 207.108 111.586 207.342L114.187 209.445C114.477 209.68 114.522 210.105 114.287 210.396L114.258 210.432C114.024 210.722 113.598 210.767 113.308 210.532Z" fill="#A8A7FF"/>
<path d="M153.652 201.023L151.052 198.92C150.761 198.685 150.716 198.26 150.951 197.97L150.98 197.934C151.215 197.644 151.64 197.598 151.93 197.833L154.531 199.936C154.821 200.171 154.866 200.596 154.631 200.887L154.602 200.923C154.367 201.212 153.942 201.258 153.652 201.023Z" fill="white"/>
<path d="M123.077 209.719L123.646 206.424C123.71 206.056 124.059 205.809 124.427 205.873L124.472 205.881C124.84 205.944 125.086 206.294 125.023 206.662L124.454 209.957C124.39 210.325 124.04 210.572 123.673 210.508L123.627 210.5C123.26 210.437 123.013 210.087 123.077 209.719Z" fill="#6360FF"/>
<path d="M119.017 221.373L119.587 218.077C119.65 217.71 120 217.463 120.367 217.527L120.413 217.534C120.781 217.598 121.027 217.947 120.964 218.315L120.394 221.611C120.331 221.978 119.981 222.225 119.613 222.161L119.568 222.154C119.2 222.09 118.954 221.741 119.017 221.373Z" fill="#6360FF"/>
<path d="M134.042 201.738L136.669 199.668C136.962 199.438 137.386 199.488 137.617 199.781L137.646 199.817C137.877 200.11 137.827 200.535 137.534 200.766L134.907 202.836C134.613 203.067 134.189 203.017 133.958 202.724L133.929 202.687C133.698 202.394 133.749 201.969 134.042 201.738Z" fill="#A8A7FF"/>
<path d="M144.537 203.266L145.106 199.97C145.17 199.602 145.52 199.356 145.887 199.419L145.933 199.427C146.3 199.491 146.547 199.84 146.483 200.208L145.914 203.504C145.85 203.871 145.501 204.118 145.133 204.054L145.088 204.046C144.72 203.983 144.474 203.633 144.537 203.266Z" fill="#6360FF"/>
<path d="M160.159 250.427L162.149 247.739C162.371 247.439 162.794 247.376 163.094 247.598L163.131 247.625C163.431 247.847 163.494 248.27 163.272 248.57L161.282 251.259C161.06 251.559 160.637 251.622 160.338 251.4L160.3 251.372C160 251.15 159.937 250.727 160.159 250.427Z" fill="white"/>
<path d="M147.019 245.329L149.008 242.64C149.23 242.34 149.653 242.277 149.953 242.499L149.99 242.527C150.29 242.749 150.353 243.172 150.131 243.472L148.142 246.16C147.92 246.46 147.497 246.523 147.197 246.301L147.16 246.274C146.86 246.051 146.797 245.629 147.019 245.329Z" fill="#573240"/>
<path d="M168.915 228.896L169.162 225.56C169.19 225.188 169.514 224.909 169.886 224.936L169.932 224.94C170.304 224.967 170.584 225.291 170.556 225.663L170.309 228.999C170.281 229.371 169.958 229.65 169.585 229.623L169.539 229.619C169.167 229.592 168.888 229.268 168.915 228.896Z" fill="white"/>
<path d="M150.475 218.395L150.722 215.059C150.749 214.687 151.073 214.408 151.445 214.436L151.491 214.439C151.863 214.467 152.143 214.791 152.115 215.163L151.868 218.498C151.841 218.87 151.517 219.149 151.145 219.122L151.098 219.119C150.727 219.091 150.447 218.767 150.475 218.395Z" fill="white"/>
<path d="M139.494 262.06L138.327 258.926C138.197 258.576 138.375 258.187 138.724 258.057L138.768 258.041C139.117 257.911 139.506 258.089 139.637 258.438L140.804 261.573C140.934 261.922 140.756 262.311 140.406 262.441L140.363 262.458C140.013 262.588 139.625 262.41 139.494 262.06Z" fill="white"/>
<path d="M154.491 237.619L154.738 234.283C154.766 233.911 155.09 233.632 155.462 233.659L155.508 233.663C155.88 233.69 156.159 234.014 156.131 234.386L155.885 237.722C155.857 238.094 155.533 238.373 155.161 238.346L155.115 238.342C154.743 238.314 154.464 237.991 154.491 237.619Z" fill="white"/>
<path d="M166.194 237.409L169.538 237.458C169.911 237.464 170.209 237.77 170.204 238.143L170.203 238.19C170.198 238.563 169.891 238.861 169.518 238.855L166.174 238.806C165.801 238.8 165.503 238.493 165.508 238.12L165.509 238.074C165.514 237.701 165.821 237.403 166.194 237.409Z" fill="#573240"/>
<path d="M133.9 248.776L137.244 248.825C137.617 248.831 137.915 249.138 137.91 249.511L137.909 249.557C137.904 249.93 137.597 250.228 137.224 250.222L133.879 250.173C133.506 250.167 133.209 249.861 133.214 249.487L133.215 249.441C133.22 249.068 133.527 248.77 133.9 248.776Z" fill="#573240"/>
<path d="M141.712 252.972L145.057 253.022C145.43 253.027 145.728 253.334 145.722 253.707L145.721 253.753C145.716 254.126 145.409 254.424 145.036 254.419L141.692 254.369C141.319 254.364 141.021 254.057 141.026 253.684L141.027 253.638C141.033 253.264 141.339 252.967 141.712 252.972Z" fill="#A8A7FF"/>
<path d="M165.857 218.571L169.095 217.732C169.456 217.638 169.824 217.855 169.918 218.216L169.93 218.261C170.023 218.622 169.806 218.991 169.445 219.084L166.208 219.923C165.846 220.017 165.478 219.8 165.384 219.439L165.373 219.394C165.279 219.033 165.496 218.664 165.857 218.571Z" fill="#A8A7FF"/>
<path d="M154.505 222.402L157.743 221.563C158.104 221.47 158.472 221.687 158.566 222.048L158.578 222.093C158.671 222.454 158.454 222.822 158.093 222.916L154.856 223.755C154.494 223.849 154.126 223.632 154.032 223.271L154.021 223.226C153.927 222.865 154.144 222.496 154.505 222.402Z" fill="#A8A7FF"/>
<path d="M149.501 256.657L152.738 255.817C153.1 255.724 153.468 255.941 153.562 256.302L153.573 256.347C153.667 256.708 153.45 257.077 153.089 257.17L149.851 258.009C149.49 258.103 149.121 257.886 149.028 257.525L149.016 257.48C148.923 257.119 149.14 256.75 149.501 256.657Z" fill="white"/>
<path d="M160.699 226.906L163.009 229.324C163.267 229.594 163.257 230.022 162.987 230.28L162.954 230.311C162.684 230.569 162.256 230.559 161.999 230.29L159.688 227.871C159.431 227.602 159.44 227.174 159.71 226.916L159.744 226.884C160.013 226.627 160.441 226.636 160.699 226.906Z" fill="#6360FF"/>
<path d="M160.591 240.468L160.693 243.811C160.704 244.184 160.411 244.495 160.038 244.507L159.992 244.508C159.619 244.519 159.307 244.226 159.296 243.853L159.195 240.51C159.183 240.137 159.477 239.826 159.849 239.814L159.896 239.813C160.268 239.802 160.58 240.095 160.591 240.468Z" fill="#A8A7FF"/>
<path d="M153.12 247.996L155.43 250.414C155.688 250.684 155.678 251.111 155.409 251.369L155.375 251.401C155.105 251.659 154.678 251.649 154.42 251.379L152.11 248.961C151.852 248.691 151.862 248.264 152.132 248.006L152.165 247.974C152.435 247.716 152.862 247.726 153.12 247.996Z" fill="#6360FF"/>
<path d="M106.688 239.067L108.161 242.07C108.325 242.405 108.187 242.81 107.852 242.974L107.81 242.994C107.475 243.159 107.07 243.02 106.906 242.685L105.433 239.682C105.269 239.347 105.407 238.943 105.742 238.778L105.784 238.758C106.119 238.594 106.524 238.732 106.688 239.067Z" fill="white"/>
<path d="M117.258 229.742L118.73 232.745C118.895 233.08 118.756 233.485 118.421 233.649L118.38 233.67C118.045 233.834 117.64 233.696 117.476 233.361L116.003 230.358C115.839 230.023 115.977 229.618 116.312 229.454L116.354 229.433C116.689 229.269 117.094 229.407 117.258 229.742Z" fill="#573240"/>
<path d="M121.783 256.743L124.631 258.496C124.949 258.691 125.048 259.108 124.853 259.425L124.828 259.465C124.633 259.782 124.217 259.882 123.899 259.686L121.051 257.933C120.733 257.738 120.634 257.321 120.829 257.004L120.854 256.964C121.049 256.647 121.465 256.548 121.783 256.743Z" fill="white"/>
<path d="M106.971 215.13L110.291 215.535C110.661 215.58 110.925 215.917 110.879 216.287L110.874 216.333C110.829 216.703 110.492 216.967 110.122 216.922L106.802 216.517C106.431 216.472 106.168 216.135 106.213 215.765L106.218 215.719C106.263 215.349 106.6 215.085 106.971 215.13Z" fill="white"/>
<path d="M120.669 239.923L123.517 241.676C123.835 241.871 123.934 242.288 123.739 242.605L123.714 242.645C123.519 242.963 123.103 243.062 122.785 242.866L119.937 241.113C119.619 240.918 119.52 240.501 119.715 240.184L119.739 240.144C119.935 239.827 120.351 239.728 120.669 239.923Z" fill="white"/>
<path d="M115.474 250.412L113.893 253.359C113.716 253.688 113.307 253.812 112.978 253.635L112.937 253.613C112.609 253.437 112.485 253.027 112.661 252.698L114.243 249.751C114.419 249.423 114.829 249.299 115.158 249.476L115.198 249.498C115.527 249.674 115.651 250.083 115.474 250.412Z" fill="#573240"/>
<path d="M112.91 221.516L111.328 224.463C111.152 224.792 110.742 224.915 110.414 224.739L110.373 224.717C110.044 224.541 109.921 224.131 110.097 223.802L111.679 220.855C111.855 220.527 112.264 220.403 112.593 220.579L112.634 220.601C112.963 220.778 113.086 221.187 112.91 221.516Z" fill="#A8A7FF"/>
<path d="M132.358 258.774L131.615 262.035C131.532 262.399 131.169 262.626 130.806 262.544L130.761 262.533C130.397 262.45 130.169 262.088 130.252 261.725L130.996 258.464C131.079 258.1 131.441 257.872 131.804 257.955L131.849 257.965C132.213 258.048 132.441 258.41 132.358 258.774Z" fill="#A8A7FF"/>
<path d="M105.127 225.804L104.383 229.065C104.3 229.429 103.938 229.657 103.574 229.574L103.529 229.563C103.165 229.48 102.938 229.118 103.021 228.754L103.764 225.494C103.847 225.13 104.209 224.902 104.573 224.985L104.618 224.995C104.982 225.078 105.209 225.44 105.127 225.804Z" fill="white"/>
<path d="M127.328 250.361L124.118 251.301C123.76 251.406 123.384 251.201 123.28 250.843L123.267 250.798C123.162 250.44 123.367 250.065 123.725 249.96L126.935 249.02C127.293 248.915 127.668 249.121 127.773 249.479L127.786 249.523C127.891 249.881 127.686 250.256 127.328 250.361Z" fill="#6360FF"/>
<path d="M115.334 244.03L112.319 242.583C111.982 242.422 111.84 242.018 112.002 241.682L112.022 241.64C112.183 241.304 112.587 241.162 112.923 241.323L115.939 242.771C116.275 242.932 116.417 243.336 116.255 243.672L116.235 243.714C116.074 244.05 115.67 244.192 115.334 244.03Z" fill="#A8A7FF"/>
<path d="M112.342 232.398L107.835 233.717L108.228 235.058L112.734 233.738L112.342 232.398Z" fill="#6360FF"/>
<path d="M55.324 170.69C32.6398 170.69 14.2502 189.444 14.2502 212.574C14.2502 235.707 32.6398 254.46 55.324 254.46C78.0083 254.46 96.3978 235.707 96.3978 212.574C96.3978 189.444 78.0083 170.69 55.324 170.69ZM55.324 225.579C48.4514 225.579 42.8789 219.897 42.8789 212.888C42.8789 205.878 48.4516 200.196 55.324 200.196C62.1979 200.196 67.7704 205.879 67.7704 212.888C67.7704 219.897 62.1979 225.579 55.324 225.579Z" fill="#573240"/>
<path d="M49.7591 170.69C27.0749 170.69 8.6853 189.444 8.6853 212.574C8.6853 235.707 27.0749 254.46 49.7591 254.46C72.4433 254.46 90.8329 235.707 90.8329 212.574C90.8329 189.444 72.4433 170.69 49.7591 170.69ZM49.7591 226.987C42.1239 226.987 35.933 220.675 35.933 212.888C35.933 205.101 42.1239 198.788 49.7591 198.788C57.3956 198.788 63.5865 205.101 63.5865 212.888C63.5865 220.675 57.3956 226.987 49.7591 226.987Z" fill="#A8A7FF"/>
<path d="M55.2177 179.319H51.5513C51.1782 179.319 50.8757 179.016 50.8757 178.643V178.501C50.8757 178.128 51.1782 177.826 51.5513 177.826H55.2178C55.5909 177.826 55.8934 178.128 55.8934 178.501V178.643C55.8932 179.016 55.5908 179.319 55.2177 179.319Z" fill="white"/>
<path d="M76.8778 210.272H73.2114C72.8383 210.272 72.5359 209.97 72.5359 209.597V209.455C72.5359 209.082 72.8383 208.779 73.2114 208.779H76.8778C77.2509 208.779 77.5534 209.082 77.5534 209.455V209.597C77.5534 209.97 77.2509 210.272 76.8778 210.272Z" fill="#F485A5"/>
<path d="M85.1495 205.752L81.6303 206.78C81.2722 206.885 80.8971 206.679 80.7924 206.321L80.7526 206.185C80.648 205.827 80.8535 205.451 81.2116 205.347L84.7308 204.319C85.0889 204.214 85.4641 204.419 85.5687 204.777L85.6085 204.914C85.7131 205.272 85.5076 205.647 85.1495 205.752Z" fill="#573240"/>
<path d="M31.0921 208.937H27.4256C27.0524 208.937 26.75 208.635 26.75 208.262V208.12C26.75 207.747 27.0524 207.444 27.4256 207.444H31.0921C31.4652 207.444 31.7676 207.747 31.7676 208.12V208.262C31.7676 208.635 31.4652 208.937 31.0921 208.937Z" fill="white"/>
<path d="M70.8477 204.42L67.3212 203.417C66.9623 203.315 66.7542 202.941 66.8563 202.582L66.8951 202.446C66.9972 202.087 67.3709 201.879 67.7297 201.98L71.2563 202.984C71.6152 203.086 71.8233 203.459 71.7212 203.818L71.6824 203.955C71.5802 204.314 71.2065 204.522 70.8477 204.42Z" fill="#6360FF"/>
<path d="M20.013 198.788H16.3465C15.9733 198.788 15.6709 198.485 15.6709 198.112V197.97C15.6709 197.597 15.9733 197.295 16.3465 197.295H20.013C20.3861 197.295 20.6885 197.597 20.6885 197.97V198.112C20.6884 198.485 20.386 198.788 20.013 198.788Z" fill="#6360FF"/>
<path d="M59.1909 193.556H55.5244C55.1513 193.556 54.8489 193.254 54.8489 192.881V192.739C54.8489 192.366 55.1513 192.063 55.5244 192.063H59.1909C59.5641 192.063 59.8665 192.366 59.8665 192.739V192.881C59.8665 193.254 59.5639 193.556 59.1909 193.556Z" fill="#573240"/>
<path d="M76.7551 189.758L73.5798 187.925C73.2568 187.738 73.146 187.325 73.3325 187.002L73.4035 186.879C73.59 186.556 74.0032 186.445 74.3264 186.632L77.5017 188.465C77.8247 188.652 77.9355 189.065 77.749 189.388L77.678 189.511C77.4915 189.834 77.0783 189.945 76.7551 189.758Z" fill="#F6ACC1"/>
<path d="M33.0924 185.862L29.9923 187.819C29.6768 188.019 29.2596 187.924 29.0605 187.609L28.9846 187.489C28.7853 187.173 28.8797 186.756 29.1951 186.557L32.2952 184.599C32.6106 184.4 33.0279 184.494 33.227 184.81L33.3029 184.93C33.5022 185.245 33.4078 185.663 33.0924 185.862Z" fill="white"/>
<path d="M79.3971 195.408L77.3964 198.481C77.1928 198.793 76.7743 198.882 76.4617 198.678L76.3426 198.601C76.03 198.397 75.9415 197.979 76.1452 197.666L78.1459 194.593C78.3495 194.281 78.768 194.192 79.0806 194.396L79.1996 194.473C79.5122 194.677 79.6007 195.096 79.3971 195.408Z" fill="white"/>
<path d="M49.262 193.755L46.162 195.713C45.8465 195.912 45.4293 195.818 45.2301 195.502L45.1543 195.382C44.955 195.066 45.0493 194.649 45.3648 194.45L48.4649 192.493C48.7803 192.293 49.1976 192.388 49.3967 192.703L49.4726 192.823C49.6717 193.138 49.5775 193.556 49.262 193.755Z" fill="white"/>
<path d="M39.0105 193.142L37.743 189.701C37.6141 189.351 37.7932 188.963 38.1433 188.834L38.2766 188.785C38.6266 188.656 39.015 188.835 39.1441 189.185L40.4116 192.625C40.5405 192.975 40.3614 193.364 40.0113 193.493L39.878 193.542C39.5279 193.671 39.1396 193.492 39.0105 193.142Z" fill="#6360FF"/>
<path d="M40.18 182.448L38.0427 179.469C37.8253 179.166 37.8946 178.744 38.1979 178.527L38.3132 178.444C38.6163 178.226 39.0385 178.296 39.2559 178.599L41.3932 181.578C41.6107 181.881 41.5413 182.303 41.2381 182.521L41.1227 182.604C40.8195 182.821 40.3975 182.752 40.18 182.448Z" fill="#573240"/>
<path d="M71.2794 195.481L69.1421 192.502C68.9246 192.199 68.994 191.777 69.2972 191.559L69.4126 191.477C69.7157 191.259 70.1378 191.328 70.3553 191.632L72.4926 194.611C72.71 194.914 72.6407 195.336 72.3374 195.554L72.2221 195.636C71.9188 195.854 71.4968 195.784 71.2794 195.481Z" fill="#573240"/>
<path d="M24.2233 193.523L21.3726 191.217C21.0825 190.982 21.0375 190.557 21.2721 190.267L21.3614 190.157C21.5961 189.866 22.0214 189.821 22.3114 190.056L25.1622 192.362C25.4522 192.596 25.4972 193.022 25.2626 193.312L25.1733 193.422C24.9387 193.712 24.5133 193.757 24.2233 193.523Z" fill="#F485A5"/>
<path d="M67.3327 184.543L64.4819 182.237C64.1919 182.003 64.1469 181.577 64.3815 181.287L64.4708 181.177C64.7055 180.887 65.1307 180.842 65.4209 181.076L68.2717 183.382C68.5618 183.617 68.6067 184.042 68.3721 184.332L68.2828 184.443C68.0481 184.733 67.6227 184.778 67.3327 184.543Z" fill="#6360FF"/>
<path d="M17.9608 209.257L15.6916 206.377C15.4607 206.084 15.511 205.66 15.8041 205.429L15.9157 205.341C16.2087 205.11 16.6334 205.16 16.8645 205.453L19.1337 208.333C19.3646 208.626 19.3142 209.051 19.0212 209.282L18.9096 209.37C18.6164 209.601 18.1917 209.55 17.9608 209.257Z" fill="#F485A5"/>
<path d="M30.7026 197.802L31.3269 194.189C31.3904 193.821 31.7399 193.575 32.1076 193.638L32.2475 193.662C32.6153 193.726 32.8618 194.075 32.7982 194.443L32.174 198.056C32.1105 198.424 31.7609 198.67 31.3932 198.607L31.2533 198.583C30.8856 198.519 30.6391 198.169 30.7026 197.802Z" fill="#F6ACC1"/>
<path d="M44.8554 186.758L47.7352 184.488C48.0282 184.258 48.4529 184.308 48.684 184.601L48.7718 184.713C49.0027 185.006 48.9523 185.43 48.6592 185.661L45.7795 187.931C45.4864 188.161 45.0617 188.111 44.8307 187.818L44.7428 187.706C44.512 187.413 44.5623 186.989 44.8554 186.758Z" fill="#F485A5"/>
<path d="M22.4528 203.461L25.3326 201.191C25.6256 200.96 26.0503 201.011 26.2814 201.304L26.3692 201.415C26.6001 201.708 26.5497 202.133 26.2567 202.364L23.3769 204.633C23.0838 204.864 22.6591 204.814 22.4281 204.521L22.3403 204.409C22.1094 204.116 22.1597 203.692 22.4528 203.461Z" fill="#573240"/>
<path d="M57.5493 186.956L58.1735 183.343C58.2371 182.975 58.5866 182.729 58.9543 182.792L59.0942 182.817C59.4619 182.88 59.7084 183.23 59.6449 183.597L59.0207 187.21C58.9571 187.578 58.6076 187.824 58.2399 187.761L58.1 187.737C57.7323 187.673 57.4858 187.324 57.5493 186.956Z" fill="#F6ACC1"/>
<path d="M61.8729 198.158L64.3135 195.422C64.5619 195.143 64.989 195.119 65.2673 195.367L65.3734 195.462C65.6518 195.71 65.6762 196.137 65.4278 196.416L62.9871 199.152C62.7387 199.43 62.3117 199.455 62.0333 199.206L61.9273 199.112C61.6489 198.863 61.6245 198.436 61.8729 198.158Z" fill="#F485A5"/>
<path d="M44.8738 246.498L48.5398 246.554C48.9128 246.56 49.2106 246.867 49.2049 247.24L49.2027 247.382C49.197 247.755 48.89 248.053 48.5169 248.047L44.851 247.991C44.478 247.985 44.1802 247.678 44.1859 247.305L44.1881 247.163C44.1938 246.79 44.5008 246.492 44.8738 246.498Z" fill="white"/>
<path d="M23.6882 215.218L27.3542 215.274C27.7272 215.28 28.025 215.587 28.0193 215.96L28.0171 216.102C28.0114 216.475 27.7044 216.772 27.3314 216.767L23.6654 216.711C23.2924 216.705 22.9946 216.398 23.0003 216.025L23.0025 215.883C23.0081 215.51 23.3151 215.212 23.6882 215.218Z" fill="#F485A5"/>
<path d="M15.3484 219.612L18.883 218.637C19.2427 218.538 19.6146 218.749 19.7138 219.109L19.7516 219.246C19.8508 219.605 19.6396 219.977 19.2799 220.077L15.7453 221.051C15.3856 221.15 15.0137 220.939 14.9145 220.579L14.8767 220.443C14.7776 220.083 14.9888 219.711 15.3484 219.612Z" fill="#573240"/>
<path d="M69.4482 217.251L73.1142 217.307C73.4872 217.313 73.785 217.62 73.7793 217.993L73.7771 218.135C73.7714 218.508 73.4644 218.805 73.0914 218.8L69.4254 218.744C69.0524 218.738 68.7546 218.431 68.7603 218.058L68.7625 217.916C68.7681 217.543 69.0751 217.245 69.4482 217.251Z" fill="white"/>
<path d="M29.6285 221.161L33.1393 222.218C33.4966 222.326 33.6991 222.702 33.5914 223.06L33.5504 223.196C33.4429 223.553 33.0661 223.755 32.7089 223.648L29.1981 222.591C28.8408 222.484 28.6383 222.107 28.7459 221.75L28.7869 221.614C28.8944 221.256 29.2712 221.054 29.6285 221.161Z" fill="#6360FF"/>
<path d="M80.3713 227.568L84.0373 227.624C84.4103 227.63 84.7081 227.937 84.7024 228.31L84.7002 228.452C84.6945 228.825 84.3875 229.123 84.0145 229.117L80.3485 229.061C79.9755 229.056 79.6777 228.749 79.6834 228.376L79.6856 228.234C79.6913 227.861 79.9983 227.563 80.3713 227.568Z" fill="#6360FF"/>
<path d="M41.1179 232.201L44.7839 232.257C45.1569 232.263 45.4547 232.57 45.449 232.943L45.4468 233.085C45.4411 233.458 45.1341 233.756 44.7611 233.75L41.0951 233.694C40.7221 233.688 40.4243 233.381 40.43 233.008L40.4322 232.866C40.4379 232.493 40.7448 232.196 41.1179 232.201Z" fill="#573240"/>
<path d="M23.4978 235.731L26.6447 237.613C26.9649 237.804 27.0693 238.219 26.8779 238.539L26.805 238.661C26.6135 238.981 26.1988 239.086 25.8785 238.894L22.7316 237.013C22.4114 236.821 22.307 236.406 22.4984 236.086L22.5713 235.964C22.7628 235.644 23.1776 235.54 23.4978 235.731Z" fill="#F6ACC1"/>
<path d="M67.0964 240.293L70.226 238.383C70.5445 238.189 70.9602 238.289 71.1546 238.608L71.2286 238.729C71.423 239.047 71.3224 239.463 71.0039 239.657L67.8743 241.568C67.5558 241.762 67.1401 241.661 66.9457 241.343L66.8717 241.222C66.6774 240.903 66.7779 240.488 67.0964 240.293Z" fill="white"/>
<path d="M20.9426 230.042L22.9899 227C23.1982 226.691 23.6181 226.608 23.9276 226.817L24.0454 226.896C24.3549 227.104 24.437 227.524 24.2286 227.834L22.1813 230.875C21.9729 231.185 21.5531 231.267 21.2436 231.059L21.1258 230.979C20.8163 230.771 20.7342 230.351 20.9426 230.042Z" fill="white"/>
<path d="M51.0488 232.154L54.1784 230.244C54.4969 230.05 54.9126 230.15 55.107 230.469L55.181 230.59C55.3754 230.909 55.2748 231.324 54.9563 231.519L51.8267 233.429C51.5082 233.623 51.0925 233.523 50.8981 233.204L50.8241 233.083C50.6297 232.764 50.7303 232.349 51.0488 232.154Z" fill="white"/>
<path d="M61.2899 232.924L62.5049 236.383C62.6286 236.735 62.4434 237.121 62.0913 237.244L61.9574 237.291C61.6054 237.415 61.2198 237.23 61.0961 236.878L59.8811 233.418C59.7575 233.067 59.9426 232.681 60.2947 232.557L60.4287 232.51C60.7808 232.387 61.1663 232.572 61.2899 232.924Z" fill="#6360FF"/>
<path d="M59.9571 243.598L62.0487 246.609C62.2615 246.916 62.1856 247.337 61.8793 247.55L61.7627 247.631C61.4562 247.844 61.0353 247.768 60.8224 247.461L58.7309 244.45C58.518 244.143 58.5939 243.722 58.9003 243.51L59.0169 243.429C59.3234 243.216 59.7443 243.292 59.9571 243.598Z" fill="#573240"/>
<path d="M29.0604 230.092L31.1519 233.104C31.3648 233.41 31.2889 233.831 30.9825 234.044L30.866 234.125C30.5595 234.338 30.1385 234.262 29.9257 233.955L27.8341 230.944C27.6213 230.638 27.6972 230.217 28.0035 230.004L28.1201 229.923C28.4266 229.71 28.8476 229.786 29.0604 230.092Z" fill="#573240"/>
<path d="M76.0812 232.769L78.8965 235.118C79.183 235.357 79.2214 235.782 78.9824 236.069L78.8915 236.178C78.6524 236.465 78.2265 236.503 77.9399 236.264L75.1246 233.915C74.8381 233.676 74.7997 233.25 75.0387 232.964L75.1297 232.854C75.3687 232.568 75.7946 232.53 76.0812 232.769Z" fill="#F485A5"/>
<path d="M32.8397 241.09L35.655 243.438C35.9416 243.677 35.98 244.103 35.7409 244.39L35.65 244.499C35.411 244.785 34.985 244.824 34.6985 244.585L31.8832 242.236C31.5966 241.997 31.5582 241.571 31.7973 241.284L31.8882 241.175C32.1272 240.889 32.5532 240.851 32.8397 241.09Z" fill="#6360FF"/>
<path d="M82.5831 217.131L84.8082 220.045C85.0346 220.342 84.9777 220.766 84.6813 220.992L84.5685 221.078C84.2719 221.305 83.848 221.248 83.6216 220.952L81.3965 218.037C81.17 217.741 81.2269 217.317 81.5234 217.09L81.6362 217.004C81.9326 216.778 82.3567 216.835 82.5831 217.131Z" fill="#F485A5"/>
<path d="M69.6678 228.391L68.9884 231.994C68.9193 232.361 68.566 232.602 68.1994 232.533L68.0598 232.506C67.6932 232.437 67.452 232.084 67.5211 231.717L68.2004 228.114C68.2695 227.748 68.6229 227.507 68.9895 227.576L69.129 227.602C69.4958 227.671 69.737 228.024 69.6678 228.391Z" fill="#F6ACC1"/>
<path d="M55.3481 239.218L52.4339 241.443C52.1374 241.669 51.7135 241.613 51.487 241.316L51.4008 241.203C51.1744 240.907 51.2313 240.483 51.5278 240.256L54.4419 238.031C54.7385 237.805 55.1624 237.862 55.3888 238.158L55.475 238.271C55.7015 238.568 55.6446 238.992 55.3481 239.218Z" fill="#F485A5"/>
<path d="M78.0033 222.859L75.0892 225.084C74.7926 225.31 74.3687 225.254 74.1423 224.957L74.0561 224.844C73.8297 224.547 73.8866 224.124 74.183 223.897L77.0972 221.672C77.3937 221.446 77.8176 221.502 78.0441 221.799L78.1303 221.912C78.3568 222.208 78.2999 222.632 78.0033 222.859Z" fill="#573240"/>
<path d="M42.659 238.826L41.9796 242.429C41.9105 242.796 41.5572 243.037 41.1906 242.968L41.051 242.941C40.6844 242.872 40.4432 242.519 40.5123 242.152L41.1917 238.549C41.2607 238.183 41.6141 237.942 41.9807 238.011L42.1202 238.037C42.4869 238.106 42.7281 238.459 42.659 238.826Z" fill="#F6ACC1"/>
<path d="M38.5066 227.56L36.0246 230.258C35.772 230.533 35.3447 230.551 35.0701 230.298L34.9656 230.202C34.691 229.949 34.6731 229.522 34.9257 229.247L37.4077 226.549C37.6603 226.274 38.0876 226.257 38.3622 226.509L38.4667 226.605C38.7413 226.858 38.7593 227.285 38.5066 227.56Z" fill="#F485A5"/>
<path d="M179.318 134.77L179.208 135.72H53.3809L53.4908 134.77H179.318Z" fill="#FDE5E3"/>
<path d="M177.103 146.299C176.932 146.625 176.745 146.941 176.546 147.249H54.996C54.7965 146.941 54.6092 146.624 54.4368 146.299H177.103Z" fill="#FDE5E3"/>
<path d="M178.656 140.535L178.546 141.485H52.9953C52.9655 141.171 52.9478 140.855 52.9424 140.535H178.656Z" fill="#FDE5E3"/>
<path d="M192.057 213.296H140.57V270.943H192.057V213.296Z" fill="#F6ACC1"/>
<path d="M140.57 213.296H0.0800781V270.943H140.57V213.296Z" fill="#FCD4D0"/>
<path d="M140.632 218.585H0.0800781V219.535H140.632V218.585Z" fill="#FDE5E3"/>
<path d="M140.57 224.35H0.0800781V225.3H140.57V224.35Z" fill="#FDE5E3"/>
<path d="M140.57 230.115H0.0800781V231.065H140.57V230.115Z" fill="#FDE5E3"/>
<path d="M140.57 235.879H0.0800781V236.83H140.57V235.879Z" fill="#FDE5E3"/>
<path d="M140.57 241.644H0.0800781V242.594H140.57V241.644Z" fill="#FDE5E3"/>
<path d="M140.57 247.409H0.0800781V248.359H140.57V247.409Z" fill="#FDE5E3"/>
<path d="M140.57 258.938H0.0800781V259.888H140.57V258.938Z" fill="#FDE5E3"/>
<path d="M140.57 253.174H0.0800781V254.124H140.57V253.174Z" fill="#FDE5E3"/>
<path d="M140.57 264.703H0.0800781V265.653H140.57V264.703Z" fill="#FDE5E3"/>
<path d="M192.057 218.585H140.632V219.535H192.057V218.585Z" fill="#FABFD6"/>
<path d="M192.057 224.35H140.57V225.3H192.057V224.35Z" fill="#FABFD6"/>
<path d="M192.057 230.115H140.57V231.065H192.057V230.115Z" fill="#FABFD6"/>
<path d="M192.057 235.879H140.57V236.83H192.057V235.879Z" fill="#FABFD6"/>
<path d="M192.057 241.644H140.57V242.594H192.057V241.644Z" fill="#FABFD6"/>
<path d="M192.057 247.409H140.57V248.359H192.057V247.409Z" fill="#FABFD6"/>
<path d="M192.057 258.938H140.57V259.888H192.057V258.938Z" fill="#FABFD6"/>
<path d="M192.057 253.174H140.57V254.124H192.057V253.174Z" fill="#FABFD6"/>
<path d="M192.057 264.703H140.57V265.653H192.057V264.703Z" fill="#FABFD6"/>
<path d="M245.099 164.477L232.862 270.943H172.082L159.846 164.477H245.099Z" fill="white"/>
<path d="M245.098 164.476L232.862 270.942H219.621L231.389 168.548H160.314L159.845 164.476H245.098Z" fill="#FFC3BD"/>
<path d="M251.698 164.476H153.247L154.028 160.123C154.361 158.264 155.979 156.909 157.869 156.909H159.557L160.797 152.184C161.665 148.865 164.665 146.551 168.097 146.551H236.848C240.28 146.551 243.278 148.865 244.148 152.184L245.386 156.909H247.076C248.966 156.909 250.584 158.264 250.916 160.123L251.698 164.476Z" fill="#573240"/>
<path d="M172.082 270.943H232.862" stroke="#573240" stroke-width="0.678681" stroke-miterlimit="10" stroke-linecap="round"/>
<path d="M200.151 230.881C210.683 230.881 219.222 221.765 219.222 210.52C219.222 199.275 210.683 190.16 200.151 190.16C189.618 190.16 181.08 199.275 181.08 210.52C181.08 221.765 189.618 230.881 200.151 230.881Z" fill="#F485A5"/>
<path d="M203.128 204.734L196.308 215.208C195.947 215.761 195.15 215.796 194.742 215.277C193.027 213.095 192.983 209.643 194.838 206.793C196.694 203.944 199.869 202.589 202.558 203.275C203.198 203.438 203.488 204.181 203.128 204.734Z" fill="#573240"/>
<path d="M205.627 213.818C203.79 216.64 200.658 217.995 197.988 217.358C197.341 217.204 197.045 216.453 197.408 215.896L204.202 205.462C204.564 204.905 205.371 204.873 205.774 205.401C207.437 207.586 207.464 210.997 205.627 213.818Z" fill="#573240"/>
</svg>
